<?xml version="1.0" encoding="UTF-8" standalone="no"?>
<!-- Created with Inkscape (http://www.inkscape.org/) -->

<svg
   width="210mm"
   height="297mm"
   viewBox="0 0 210 297"
   version="1.1"
   id="svg336"
   inkscape:version="1.2.2 (732a01da63, 2022-12-09)"
   sodipodi:docname="about.svg"
   xmlns:inkscape="http://www.inkscape.org/namespaces/inkscape"
   xmlns:sodipodi="http://sodipodi.sourceforge.net/DTD/sodipodi-0.dtd"
   xmlns="http://www.w3.org/2000/svg"
   xmlns:svg="http://www.w3.org/2000/svg">
  <sodipodi:namedview
     id="namedview338"
     pagecolor="#ffffff"
     bordercolor="#000000"
     borderopacity="0.25"
     inkscape:showpageshadow="2"
     inkscape:pageopacity="0.0"
     inkscape:pagecheckerboard="0"
     inkscape:deskcolor="#d1d1d1"
     inkscape:document-units="mm"
     showgrid="false"
     inkscape:zoom="0.46057099"
     inkscape:cx="397.33289"
     inkscape:cy="560.17423"
     inkscape:window-width="1366"
     inkscape:window-height="697"
     inkscape:window-x="-8"
     inkscape:window-y="-8"
     inkscape:window-maximized="1"
     inkscape:current-layer="layer1" />
  <defs
     id="defs333">
    <rect
       x="280.08712"
       y="223.63545"
       width="347.39488"
       height="332.19635"
       id="rect450" />
  </defs>
  <g
     inkscape:label="Layer 1"
     inkscape:groupmode="layer"
     id="layer1">
    <path
       style="fill:#f9f9f9;stroke-width:0.264583"
       id="path389"
       d="M 27.995313,22.998534 C 27.131481,44.132693 25.81955,65.247657 24.444824,86.353977 23.329638,101.1579 22.609517,116.01151 20.793802,130.7533 c -0.126152,0.8791 -0.251845,1.75827 -0.378455,2.63731 -0.187104,1.29903 -0.41505,2.67603 -0.49933,3.98883 -0.259546,4.04287 0.02064,8.08968 0.209172,12.12825 0.349407,9.79381 1.228637,19.55503 2.338045,29.28856 0.616895,5.89872 1.551683,11.75763 2.244682,17.64657 0.508263,4.66049 0.638583,9.34848 0.430165,14.0282 -0.739563,11.34333 -1.88196,22.6572 -3.038386,33.96444 -0.461467,4.96409 -0.995525,9.94068 -2.297334,14.76372 -0.881577,2.52585 -1.109652,5.18967 -1.280671,7.83951 -0.131692,2.23168 -0.162143,4.46728 -0.177072,6.70221 0,0 3.496342,1.7821 3.496342,1.7821 v 0 c -0.0087,-2.23602 -7.93e-4,-4.47307 0.114733,-6.70673 0.168044,-2.62586 0.400196,-5.25938 1.265801,-7.76462 1.212191,-4.90704 1.631638,-9.9512 2.013156,-14.98083 1.016774,-11.30123 2.109265,-22.59457 3.215228,-33.88717 0.07667,-1.00816 0.194085,-2.01405 0.230024,-3.02449 0.02402,-0.67569 -0.03149,-1.35187 -0.05033,-2.02772 -0.08377,-3.00592 -0.169598,-6.01722 -0.520927,-9.00644 -0.716659,-5.92101 -1.737202,-11.80181 -2.412407,-17.72884 -1.179293,-9.72855 -2.057525,-19.49815 -2.412399,-29.29415 -0.08374,-2.86246 -0.227897,-6.15232 -0.155028,-9.05375 0.0808,-3.21734 0.594008,-6.3981 0.915377,-9.59424 1.405906,-14.88986 1.915088,-29.85131 2.976162,-44.766625 1.360281,-20.988739 2.515542,-41.996246 4.316714,-62.952855 0,0 -3.341754,-1.736006 -3.341754,-1.736006 z" />
    <path
       style="fill:#f9f9f9;stroke-width:0.264583"
       id="path391"
       d="m 30.102743,277.35527 c 30.604907,-2.62231 61.336309,-3.66334 92.047637,-3.80992 6.33947,-0.0303 12.67901,0.042 19.01852,0.0629 12.21972,0.30263 24.44748,0.32351 36.66391,0.76864 2.95225,0.10758 6.9683,0.20744 10.01625,0.78717 0.87462,0.16634 1.70953,0.49805 2.56429,0.74707 0.58309,0.35547 1.94668,0.41265 1.74926,1.06638 -0.19111,0.63283 -1.42743,-1.07852 -1.88861,-0.60494 -0.41756,0.42881 0.74404,0.93887 1.08327,1.43198 0.83441,1.21287 1.51183,2.53089 2.16733,3.84513 0.48317,0.98296 0.99328,1.94755 1.54314,2.89441 0,0 3.60463,1.6025 3.60463,1.6025 v 0 c -0.56114,-0.95316 -1.11972,-1.90087 -1.609,-2.89488 -0.6071,-1.22518 -2.33422,-4.65408 -3.24903,-5.41867 -2.87667,-2.40435 -3.77691,-2.80194 -6.38716,-4.215 -0.83564,-0.21047 -1.65564,-0.4976 -2.50692,-0.63142 -2.93467,-0.46133 -6.88003,-0.46821 -9.69348,-0.51044 -11.9738,-0.1797 -23.9505,-0.0257 -35.92424,-0.22392 -15.63434,0.051 -24.18834,0.0212 -40.1099,0.32571 -23.993136,0.4587 -47.969421,1.46618 -71.931035,2.75447 0,0 2.841138,2.02279 2.841138,2.02279 z" />
    <path
       style="fill:#f9f9f9;stroke-width:0.264583"
       id="path393"
       d="m 199.13741,284.13982 c -0.2358,-2.3487 -0.5385,-4.69164 -0.70738,-7.04612 -1.00826,-14.05643 -1.11917,-28.17752 -1.2099,-42.26215 -0.0857,-13.30708 -0.0286,-20.22773 0.0185,-33.47955 0.0226,-16.94703 0.39435,-33.91182 -0.15762,-50.85528 -0.18279,-5.6111 -0.47793,-9.646 -0.82905,-15.1563 -0.17781,-1.83915 -0.33687,-3.6802 -0.53344,-5.51744 -0.20853,-1.94898 -0.85825,-6.81425 -1.01166,-8.74079 -0.62071,-7.79481 -0.44418,-15.64869 -0.42571,-23.457873 0.13212,-14.771045 0.43453,-29.542711 0.2357,-44.314165 -0.1022,-4.99808 -0.603,-9.97494 -1.04985,-14.950525 0,0 -3.41576,-1.698696 -3.41576,-1.698696 v 0 c 0.52816,4.999283 1.09606,9.999498 1.26491,15.027724 0.48758,14.829888 0.39263,29.671976 0.1653,44.506324 -0.0435,3.184658 -0.0936,6.369231 -0.13037,9.553971 -0.0564,4.879 -0.19947,8.95758 0.12969,13.73377 0.23159,3.36064 0.67531,5.45444 1.10083,8.78367 0.23661,1.8512 0.43199,3.70744 0.64799,5.56117 0.41969,5.2862 0.8245,9.93054 1.0825,15.26808 0.82274,17.02066 0.62369,34.07762 0.67976,51.11084 -0.0433,27.40772 -0.35776,54.83449 0.6925,82.22765 0,0 3.45307,1.70569 3.45307,1.70569 z" />
    <path
       style="fill:#000000;stroke-width:0.264583"
       id="path395"
       d="m 36.717642,28.147203 c 0.700852,12.689853 1.055438,25.392903 1.287362,38.098766 0.137435,9.285269 0.138379,18.572218 -0.0095,27.857252 -0.07143,2.984153 -0.147903,5.966089 -0.141285,8.951059 0.03665,9.43365 0.556442,18.85848 1.165928,28.26991 0.808848,9.81324 1.537936,19.63049 1.996054,29.46674 0.296595,7.49267 0.407122,14.99148 0.529106,22.4886 0.18673,14.15337 0.06777,28.3081 -0.06352,42.46133 -0.05874,5.33902 -0.13707,10.67784 -0.180417,16.01702 0.124357,7.0791 0.235461,14.15819 0.295524,21.23817 0.03325,3.60293 0.03352,7.20602 0.04856,10.80904 0.0034,0.79002 0.01426,1.57996 0.02677,2.36985 0,0 3.525113,1.78829 3.525113,1.78829 v 0 c -0.01551,-0.79404 -0.03169,-1.58808 -0.05263,-2.38202 -0.09736,-3.64088 -0.207248,-7.28149 -0.274923,-10.92314 -0.131331,-7.04798 -0.218636,-14.09733 -0.127291,-21.14651 -0.0349,-5.3903 -0.08613,-10.7805 -0.122338,-16.1708 -0.07153,-14.15858 -0.122838,-28.31783 0.03882,-42.47607 0.07221,-7.49101 0.06974,-14.97644 -0.42971,-22.45649 -0.510857,-9.845 -1.223108,-19.67519 -2.046097,-29.49907 -0.654267,-9.35432 -1.188029,-18.73136 -0.920657,-28.11266 0.08519,-2.99515 0.119584,-5.989688 0.07869,-8.986306 C 41.291901,86.459144 41.193328,77.10834 40.989527,67.759259 40.72301,55.152723 40.260738,42.54655 40.204805,29.93785 c 0,0 -3.487155,-1.790647 -3.487155,-1.790647 z" />
    <path
       style="fill:#000000;stroke-width:0.264583"
       id="path446"
       d="m 56.422988,276.60801 c 3.935082,0.19182 7.870753,0.37192 11.805245,0.57549 7.84488,0.40587 15.680483,1.00547 23.530541,1.29437 12.907216,0.47501 25.820106,0.25056 38.728236,0.0132 17.28298,-0.29988 34.54357,-1.16927 51.80192,-2.0837 3.85735,-0.2223 7.73131,-0.28305 11.56193,-0.8373 1.70968,-0.24739 2.8673,-0.30123 4.20891,-1.46391 0.53804,-0.4663 0.88145,-1.11837 1.32218,-1.67754 1.7769,-4.01317 2.33855,-8.39617 2.77946,-12.72264 -0.002,-0.58676 0.2743,-1.39897 -0.0415,-1.9731 -0.20171,-0.36668 -0.75402,-0.55475 -0.97139,-0.85151 -0.47971,-0.65493 -0.82828,-1.39649 -1.24242,-2.09473 -0.51228,-1.73914 -1.19189,-3.43752 -1.53685,-5.21742 -1.22217,-6.30606 -1.66861,-13.9169 -1.97931,-20.23474 -0.56632,-11.51592 -0.56896,-23.04621 -0.58056,-34.57209 -0.0153,-11.89756 0.40792,-23.78871 0.53629,-35.68404 0.33775,-14.57792 1.28589,-29.13134 1.83895,-43.70088 0.40391,-10.64059 0.35976,-11.0767 0.54163,-21.491439 0.0903,-14.116624 -0.2481,-28.230152 -0.44153,-42.344334 -0.0139,-1.268471 -0.0296,-2.536923 -0.0417,-3.805415 -0.009,-0.990174 0.021,-1.981313 -0.0226,-2.970572 -0.14242,-3.231666 -0.79515,-6.38289 -1.56569,-9.512461 -0.86338,-3.475739 -2.10603,-6.838096 -3.1815,-10.249797 -0.38959,-1.663565 -0.99695,-3.276669 -1.32219,-4.9541 -0.34818,-3.53461 -0.30096,-7.098271 -0.2964,-10.6466942 -0.0181,-0.4694725 0.32162,-1.1266091 -0.0543,-1.4084173 -4.73778,-3.5516748 -5.27506,-2.679387 -10.57026,-2.124678 -3.21592,0.3368897 -6.4258,0.7302474 -9.64254,1.0592459 C 160.31497,8.0817669 157.85877,8.2317348 146.39512,9.1892098 132.37307,10.181044 118.29225,10.693307 104.2351,10.264454 97.540669,10.060142 95.440372,9.8043157 88.68013,9.2610306 75.524962,8.0112525 62.439054,6.1754104 49.280762,4.9544901 43.438738,4.42865 37.58049,4.1306832 31.716974,4.0147927 29.918445,4.1827791 27.913565,3.5898515 26.193327,4.2810631 c -0.11445,0.2235334 -0.294636,0.4242411 -0.343349,0.6706007 -0.375545,1.8992545 0.609456,6.1827812 0.936669,7.9596252 0.587562,3.19061 1.102764,5.660884 1.747176,8.841889 1.465135,7.086169 3.256793,14.097017 4.689787,21.190165 0.670031,3.184271 1.294077,6.377389 1.93027,9.568487 0.0497,0.280363 0.0994,0.560728 0.149095,0.841092 0,0 3.526595,1.718214 3.526595,1.718214 v 0 C 38.777116,54.785982 38.724665,54.500827 38.672214,54.215672 37.993079,50.999937 37.309395,47.785628 36.597336,44.576902 35.104839,37.464243 33.263043,30.433848 31.769878,23.321378 30.984573,19.443912 30.743424,18.407695 30.080116,14.521692 29.872498,13.30534 29.667242,12.088091 29.502833,10.865149 29.347665,9.7109517 28.909385,7.7227149 29.470945,6.4946471 c 1.707351,-0.5237117 3.601183,-0.043336 5.351293,-0.2166686 5.778354,0.057596 11.553261,0.3128304 17.312928,0.7896153 13.088879,1.1324585 26.103728,2.9221345 39.183974,4.1436312 6.623722,0.542618 9.01497,0.841476 15.57224,0.986307 13.94432,0.307991 27.90412,-0.443485 41.81036,-1.361253 24.26361,-1.9574847 1.90244,-0.137104 25.42681,-2.0981711 3.32163,-0.2769015 6.64056,-0.5905714 9.96599,-0.8173008 1.79604,-0.1224542 3.72018,0.4282199 5.39571,-0.2300669 0.57131,-0.2244574 -0.53699,-1.4191697 -1.15053,-1.4377934 -0.46923,-0.014242 0.059,0.9370364 0.0885,1.4055547 0.0336,3.5546385 0.0108,7.1147125 0.19065,10.6648805 0.24976,1.721601 0.97537,3.333727 1.35324,5.030377 1.10417,3.411575 2.34878,6.779872 3.24835,10.255235 0.80559,3.113479 1.46834,6.248556 1.67093,9.468231 0.0629,1.000093 0.0595,2.003255 0.089,3.004891 0.0378,1.280671 0.0752,2.561349 0.11283,3.842025 0.41591,14.184799 0.89132,28.371384 0.89898,42.563764 -0.0402,3.467994 -0.0493,6.936491 -0.12063,10.403985 -0.37509,18.22132 -1.53495,36.41595 -2.60624,54.60577 -0.093,1.98679 -0.21928,3.97231 -0.27885,5.96039 -0.0781,2.60761 -0.002,5.21757 0.002,7.82636 0.0111,7.36483 0.0441,14.72961 0.10128,22.09424 0.11617,11.53407 0.16924,23.0788 0.61256,34.60639 0.21174,5.50591 0.61971,14.39591 1.49083,20.0697 0.26984,1.75752 0.84054,3.45547 1.26081,5.18321 0.35333,0.72267 0.64175,1.48087 1.05998,2.16802 0.89736,1.47437 0.25833,0.18158 1.00248,0.67197 0.49643,0.32715 0.15675,1.45554 0.20882,1.83945 -0.31068,4.275 -0.84292,8.60809 -2.619,12.55437 -0.41634,0.51663 -0.74261,1.12118 -1.24901,1.54991 -1.24974,1.05807 -2.46926,1.15374 -4.04358,1.39668 -3.76236,0.58057 -7.57409,0.67733 -11.36447,0.95144 -17.07354,1.11654 -34.15846,2.03922 -51.2657,2.45443 -11.97033,0.23451 -14.18291,0.37772 -26.26026,0.20516 -16.056992,-0.22944 -32.079462,-1.36718 -48.103521,-2.33495 0,0 2.60308,1.91358 2.60308,1.91358 z" />
    <text
       xml:space="preserve"
       transform="scale(0.26458333)"
       id="text448"
       style="font-size:96px;white-space:pre;shape-inside:url(#rect450);fill:#000000"><tspan
         x="280.08789"
         y="310.98278"
         id="tspan466">about </tspan><tspan
         x="280.08789"
         y="430.98278"
         id="tspan468">page</tspan></text>
  </g>
</svg>
